{
  "accessors": [
    {
      "bufferView": 2,
      "componentType": 5126,
      "count": 461,
      "max": [
        0.5586708188056946,
        2.3519866466522217,
        0.5586706399917603
      ],
      "min": [
        -0.5586704611778259,
        -1.30669367313385,
        -0.5586702823638916
      ],
      "type": "VEC3"
    },
    {
      "bufferView": 2,
      "byteOffset": 5532,
      "componentType": 5126,
      "count": 461,
      "max": [
        1.0,
        1.0,
        1.0
      ],
      "min": [
        -1.0,
        -0.1259533017873764,
        -1.0
      ],
      "type": "VEC3"
    },
    {
      "bufferView": 1,
      "componentType": 5126,
      "count": 461,
      "max": [
        1.0000001192092896,
        1.0
      ],
      "min": [
        0.0,
        0.31249988079071045
      ],
      "type": "VEC2"
    },
    {
      "bufferView": 0,
      "componentType": 5125,
      "count": 2208,
      "type": "SCALAR"
    },
    {
      "bufferView": 2,
      "byteOffset": 11064,
      "componentType": 5126,
      "count": 66,
      "max": [
        0.5563559532165527,
        0.27181366086006165,
        0.5563557744026184
      ],
      "min": [
        -0.5563555955886841,
        0.09895127266645432,
        -0.5563554763793945
      ],
      "type": "VEC3"
    },
    {
      "bufferView": 2,
      "byteOffset": 11856,
      "componentType": 5126,
      "count": 66,
      "max": [
        0.9997267723083496,
        0.023377763107419014,
        0.9997267723083496
      ],
      "min": [
        -0.9997267723083496,
        0.02337721176445484,
        -0.9997267723083496
      ],
      "type": "VEC3"
    },
    {
      "bufferView": 1,
      "byteOffset": 3688,
      "componentType": 5126,
      "count": 66,
      "max": [
        1.0,
        0.5370237827301025
      ],
      "min": [
        0.0,
        0.5134781002998352
      ],
      "type": "VEC2"
    },
    {
      "bufferView": 0,
      "byteOffset": 8832,
      "componentType": 5125,
      "count": 192,
      "type": "SCALAR"
    },
    {
      "bufferView": 2,
      "byteOffset": 12648,
      "componentType": 5126,
      "count": 39555,
      "max": [
        0.8600623607635498,
        0.7748335003852844,
        0.8600623607635498
      ],
      "min": [
        -0.8600623607635498,
        -0.999998152256012,
        -0.8600623607635498
      ],
      "type": "VEC3"
    },
    {
      "bufferView": 2,
      "byteOffset": 487308,
      "componentType": 5126,
      "count": 39555,
      "max": [
        0.9855405688285828,
        1.0,
        0.9855405688285828
      ],
      "min": [
        -0.9855405688285828,
        -1.0,
        -0.9855405688285828
      ],
      "type": "VEC3"
    },
    {
      "bufferView": 1,
      "byteOffset": 4216,
      "componentType": 5126,
      "count": 39555,
      "max": [
        1.1232889890670776,
        0.6232893466949463
      ],
      "min": [
        0.09108633548021317,
        -0.12329015135765076
      ],
      "type": "VEC2"
    },
    {
      "bufferView": 0,
      "byteOffset": 9600,
      "componentType": 5125,
      "count": 230400,
      "type": "SCALAR"
    },
    {
      "bufferView": 2,
      "byteOffset": 961968,
      "componentType": 5126,
      "count": 1152,
      "max": [
        0.30000001192092896,
        0.20000000298023224,
        0.30000001192092896
      ],
      "min": [
        -0.30000001192092896,
        -0.20000000298023224,
        -0.30000001192092896
      ],
      "type": "VEC3"
    },
    {
      "bufferView": 2,
      "byteOffset": 975792,
      "componentType": 5126,
      "count": 1152,
      "max": [
        1.0,
        0.9995352029800415,
        1.0
      ],
      "min": [
        -1.0,
        -0.6857142448425293,
        -1.0
      ],
      "type": "VEC3"
    },
    {
      "bufferView": 1,
      "byteOffset": 320656,
      "componentType": 5126,
      "count": 1152,
      "max": [
        1.0,
        1.0
      ],
      "min": [
        0.0,
        0.01000000536441803
      ],
      "type": "VEC2"
    },
    {
      "bufferView": 0,
      "byteOffset": 931200,
      "componentType": 5125,
      "count": 5082,
      "type": "SCALAR"
    },
    {
      "bufferView": 2,
      "byteOffset": 989616,
      "componentType": 5126,
      "count": 32,
      "max": [
        0.23713621497154236,
        0.13641434907913208,
        0.23713621497154236
      ],
      "min": [
        -0.23713621497154236,
        0.13641434907913208,
        -0.23713621497154236
      ],
      "type": "VEC3"
    },
    {
      "bufferView": 2,
      "byteOffset": 990000,
      "componentType": 5126,
      "count": 32,
      "max": [
        0.08291919529438019,
        0.9965574741363525,
        0.08291919529438019
      ],
      "min": [
        -0.08291919529438019,
        0.9965558052062988,
        -0.08291919529438019
      ],
      "type": "VEC3"
    },
    {
      "bufferView": 1,
      "byteOffset": 329872,
      "componentType": 5126,
      "count": 32,
      "max": [
        0.43970900774002075,
        0.4397090971469879
      ],
      "min": [
        0.060291048139333725,
        0.06029105186462402
      ],
      "type": "VEC2"
    },
    {
      "bufferView": 0,
      "byteOffset": 951528,
      "componentType": 5125,
      "count": 90,
      "type": "SCALAR"
    },
    {
      "bufferView": 2,
      "byteOffset": 990384,
      "componentType": 5126,
      "count": 677,
      "max": [
        0.5650110244750977,
        0.5157150030136108,
        0.5650110244750977
      ],
      "min": [
        -0.5650110244750977,
        -0.5157151222229004,
        -0.5650110244750977
      ],
      "type": "VEC3"
    },
    {
      "bufferView": 2,
      "byteOffset": 998508,
      "componentType": 5126,
      "count": 677,
      "max": [
        0.999638557434082,
        0.9935544729232788,
        0.999638557434082
      ],
      "min": [
        -0.999638557434082,
        -0.9939966201782227,
        -0.999638557434082
      ],
      "type": "VEC3"
    },
    {
      "bufferView": 1,
      "byteOffset": 330128,
      "componentType": 5126,
      "count": 677,
      "max": [
        1.0,
        1.0
      ],
      "min": [
        0.0,
        0.014160837978124619
      ],
      "type": "VEC2"
    },
    {
      "bufferView": 0,
      "byteOffset": 951888,
      "componentType": 5125,
      "count": 2292,
      "type": "SCALAR"
    },
    {
      "bufferView": 2,
      "byteOffset": 1006632,
      "componentType": 5126,
      "count": 8704,
      "max": [
        0.7038461565971375,
        1.0250182151794434,
        1.2891380786895752
      ],
      "min": [
        -4.030643939971924,
        -3.279630422592163,
        -0.9132359623908997
      ],
      "type": "VEC3"
    },
    {
      "bufferView": 2,
      "byteOffset": 1111080,
      "componentType": 5126,
      "count": 8704,
      "max": [
        0.9999105334281921,
        0.9999832510948181,
        0.999403715133667
      ],
      "min": [
        -0.9992404580116272,
        -0.9999950528144836,
        -0.9999949932098389
      ],
      "type": "VEC3"
    },
    {
      "bufferView": 1,
      "byteOffset": 335544,
      "componentType": 5126,
      "count": 8704,
      "max": [
        0.8750001788139343,
        1.0000001192092896
      ],
      "min": [
        0.1249999925494194,
        0.0
      ],
      "type": "VEC2"
    },
    {
      "bufferView": 0,
      "byteOffset": 961056,
      "componentType": 5125,
      "count": 13056,
      "type": "SCALAR"
    },
    {
      "bufferView": 2,
      "byteOffset": 1215528,
      "componentType": 5126,
      "count": 8704,
      "max": [
        0.7038461565971375,
        1.0250182151794434,
        1.2891380786895752
      ],
      "min": [
        -4.030643939971924,
        -3.279630422592163,
        -0.9132359623908997
      ],
      "type": "VEC3"
    },
    {
      "bufferView": 2,
      "byteOffset": 1319976,
      "componentType": 5126,
      "count": 8704,
      "max": [
        0.9999105334281921,
        0.9999832510948181,
        0.999403715133667
      ],
      "min": [
        -0.9992404580116272,
        -0.9999950528144836,
        -0.9999949932098389
      ],
      "type": "VEC3"
    },
    {
      "bufferView": 1,
      "byteOffset": 405176,
      "componentType": 5126,
      "count": 8704,
      "max": [
        0.8750001788139343,
        1.0000001192092896
      ],
      "min": [
        0.1249999925494194,
        0.0
      ],
      "type": "VEC2"
    },
    {
      "bufferView": 0,
      "byteOffset": 1013280,
      "componentType": 5125,
      "count": 13056,
      "type": "SCALAR"
    },
    {
      "bufferView": 2,
      "byteOffset": 1424424,
      "componentType": 5126,
      "count": 8704,
      "max": [
        0.10802708566188812,
        0.29118070006370544,
        0.1006702184677124
      ],
      "min": [
        -0.618627667427063,
        -0.9316567182540894,
        -0.07131559401750565
      ],
      "type": "VEC3"
    },
    {
      "bufferView": 2,
      "byteOffset": 1528872,
      "componentType": 5126,
      "count": 8704,
      "max": [
        0.9999228715896606,
        0.999789297580719,
        0.9999524354934692
      ],
      "min": [
        -0.9975867867469788,
        -0.9999828338623047,
        -0.9999989867210388
      ],
      "type": "VEC3"
    },
    {
      "bufferView": 1,
      "byteOffset": 474808,
      "componentType": 5126,
      "count": 8704,
      "max": [
        0.8750001788139343,
        1.0000001192092896
      ],
      "min": [
        0.1249999925494194,
        0.0
      ],
      "type": "VEC2"
    },
    {
      "bufferView": 0,
      "byteOffset": 1065504,
      "componentType": 5125,
      "count": 13056,
      "type": "SCALAR"
    },
    {
      "bufferView": 2,
      "byteOffset": 1633320,
      "componentType": 5126,
      "count": 8704,
      "max": [
        0.7038461565971375,
        1.0250182151794434,
        1.2891380786895752
      ],
      "min": [
        -4.030643939971924,
        -3.279630422592163,
        -0.9132359623908997
      ],
      "type": "VEC3"
    },
    {
      "bufferView": 2,
      "byteOffset": 1737768,
      "componentType": 5126,
      "count": 8704,
      "max": [
        0.9999105334281921,
        0.9999832510948181,
        0.999403715133667
      ],
      "min": [
        -0.9992404580116272,
        -0.9999950528144836,
        -0.9999949932098389
      ],
      "type": "VEC3"
    },
    {
      "bufferView": 1,
      "byteOffset": 544440,
      "componentType": 5126,
      "count": 8704,
      "max": [
        0.8750001788139343,
        1.0000001192092896
      ],
      "min": [
        0.1249999925494194,
        0.0
      ],
      "type": "VEC2"
    },
    {
      "bufferView": 0,
      "byteOffset": 1117728,
      "componentType": 5125,
      "count": 13056,
      "type": "SCALAR"
    }
  ],
  "asset": {
    "extras": {
      "author": "mounirchikhtouhami (https://sketchfab.com/mounirchikhtouhami)",
      "license": "CC-BY-4.0 (http://creativecommons.org/licenses/by/4.0/)",
      "source": "https://sketchfab.com/3d-models/rocket-5f62bdd53cb542669372e036c5bcc114",
      "title": "Rocket"
    },
    "generator": "Sketchfab-12.38.1",
    "version": "2.0"
  },
  "bufferViews": [
    {
      "buffer": 0,
      "byteLength": 1169952,
      "name": "floatBufferViews",
      "target": 34963
    },
    {
      "buffer": 0,
      "byteLength": 614072,
      "byteOffset": 1169952,
      "byteStride": 8,
      "name": "floatBufferViews",
      "target": 34962
    },
    {
      "buffer": 0,
      "byteLength": 1842216,
      "byteOffset": 1784024,
      "byteStride": 12,
      "name": "floatBufferViews",
      "target": 34962
    }
  ],
  "buffers": [
    {
      "byteLength": 3626240,
      "uri": "scene.bin"
    }
  ],
  "materials": [
    {
      "doubleSided": true,
      "name": "Material.001",
      "pbrMetallicRoughness": {
        "baseColorFactor": [
          0.62396,
          0.630757,
          0.597202,
          1.0
        ],
        "metallicFactor": 0.0
      }
    },
    {
      "doubleSided": true,
      "name": "Material.002",
      "pbrMetallicRoughness": {
        "baseColorFactor": [
          0.783538,
          0.0684782,
          0.0395463,
          1.0
        ],
        "roughnessFactor": 0.35
      }
    },
    {
      "doubleSided": true,
      "name": "glass",
      "pbrMetallicRoughness": {
        "baseColorFactor": [
          0.00651209,
          0.177888,
          0.630757,
          1.0
        ],
        "metallicFactor": 0.0,
        "roughnessFactor": 0.159091
      }
    }
  ],
  "meshes": [
    {
      "name": "Object_0",
      "primitives": [
        {
          "attributes": {
            "NORMAL": 1,
            "POSITION": 0,
            "TEXCOORD_0": 2
          },
          "indices": 3,
          "material": 0,
          "mode": 4
        }
      ]
    },
    {
      "name": "Object_1",
      "primitives": [
        {
          "attributes": {
            "NORMAL": 5,
            "POSITION": 4,
            "TEXCOORD_0": 6
          },
          "indices": 7,
          "material": 1,
          "mode": 4
        }
      ]
    },
    {
      "name": "Object_2",
      "primitives": [
        {
          "attributes": {
            "NORMAL": 9,
            "POSITION": 8,
            "TEXCOORD_0": 10
          },
          "indices": 11,
          "material": 1,
          "mode": 4
        }
      ]
    },
    {
      "name": "Object_3",
      "primitives": [
        {
          "attributes": {
            "NORMAL": 13,
            "POSITION": 12,
            "TEXCOORD_0": 14
          },
          "indices": 15,
          "material": 0,
          "mode": 4
        }
      ]
    },
    {
      "name": "Object_4",
      "primitives": [
        {
          "attributes": {
            "NORMAL": 17,
            "POSITION": 16,
            "TEXCOORD_0": 18
          },
          "indices": 19,
          "material": 2,
          "mode": 4
        }
      ]
    },
    {
      "name": "Object_5",
      "primitives": [
        {
          "attributes": {
            "NORMAL": 21,
            "POSITION": 20,
            "TEXCOORD_0": 22
          },
          "indices": 23,
          "material": 0,
          "mode": 4
        }
      ]
    },
    {
      "name": "Object_6",
      "primitives": [
        {
          "attributes": {
            "NORMAL": 25,
            "POSITION": 24,
            "TEXCOORD_0": 26
          },
          "indices": 27,
          "material": 0,
          "mode": 4
        }
      ]
    },
    {
      "name": "Object_7",
      "primitives": [
        {
          "attributes": {
            "NORMAL": 29,
            "POSITION": 28,
            "TEXCOORD_0": 30
          },
          "indices": 31,
          "material": 0,
          "mode": 4
        }
      ]
    },
    {
      "name": "Object_8",
      "primitives": [
        {
          "attributes": {
            "NORMAL": 33,
            "POSITION": 32,
            "TEXCOORD_0": 34
          },
          "indices": 35,
          "material": 0,
          "mode": 4
        }
      ]
    },
    {
      "name": "Object_9",
      "primitives": [
        {
          "attributes": {
            "NORMAL": 37,
            "POSITION": 36,
            "TEXCOORD_0": 38
          },
          "indices": 39,
          "material": 0,
          "mode": 4
        }
      ]
    }
  ],
  "nodes": [
    {
      "children": [
        1
      ],
      "matrix": [
        1.0,
        0.0,
        0.0,
        0.0,
        0.0,
        2.220446049250313e-16,
        -1.0,
        0.0,
        0.0,
        1.0,
        2.220446049250313e-16,
        0.0,
        0.0,
        0.0,
        0.0,
        1.0
      ],
      "name": "Sketchfab_model"
    },
    {
      "children": [
        2
      ],
      "name": "root"
    },
    {
      "children": [
        3,
        6,
        8,
        11,
        13,
        15,
        17,
        19
      ],
      "matrix": [
        1.0,
        0.0,
        0.0,
        0.0,
        0.0,
        2.220446049250313e-16,
        1.0,
        0.0,
        0.0,
        -1.0,
        2.220446049250313e-16,
        0.0,
        0.0,
        0.0,
        0.0,
        1.0
      ],
      "name": "GLTF_SceneRootNode"
    },
    {
      "children": [
        4,
        5
      ],
      "matrix": [
        1.0,
        0.0,
        0.0,
        0.0,
        0.0,
        1.0,
        0.0,
        0.0,
        0.0,
        0.0,
        1.0,
        0.0,
        0.005729351658374071,
        0.053715430200099945,
        -0.011195644736289978,
        1.0
      ],
      "name": "rocket_body_0"
    },
    {
      "mesh": 0,
      "name": "Object_4"
    },
    {
      "mesh": 1,
      "name": "Object_5"
    },
    {
      "children": [
        7
      ],
      "matrix": [
        0.47931450605392456,
        0.0,
        0.0,
        0.0,
        0.0,
        0.47931450605392456,
        0.0,
        0.0,
        0.0,
        0.0,
        0.47931450605392456,
        0.0,
        0.0011025912826880813,
        2.2039635181427,
        0.01083360705524683,
        1.0
      ],
      "name": "rocket_head_1"
    },
    {
      "mesh": 2,
      "name": "Object_7"
    },
    {
      "children": [
        9,
        10
      ],
      "matrix": [
        1.1024636030197144,
        0.0,
        0.0,
        0.0,
        0.0,
        0.05562817796211335,
        1.1010592635275478,
        0.0,
        0.0,
        -1.1010592635275478,
        0.05562817796211335,
        0.0,
        0.005299827083945274,
        0.7418168783187866,
        0.39521098136901855,
        1.0
      ],
      "name": "rocket_window_2"
    },
    {
      "mesh": 3,
      "name": "Object_9"
    },
    {
      "mesh": 4,
      "name": "Object_10"
    },
    {
      "children": [
        12
      ],
      "matrix": [
        1.0,
        0.0,
        0.0,
        0.0,
        0.0,
        1.0,
        0.0,
        0.0,
        0.0,
        0.0,
        1.0,
        0.0,
        0.0,
        -1.4456982612609863,
        0.0,
        1.0
      ],
      "name": "rocket_nazell_3"
    },
    {
      "mesh": 5,
      "name": "Object_12"
    },
    {
      "children": [
        14
      ],
      "matrix": [
        0.13391204660187364,
        0.07499343429488017,
        0.0,
        0.0,
        -0.13880314505659527,
        0.24785387419674926,
        0.0,
        0.0,
        0.0,
        0.0,
        0.078091099858284,
        0.0,
        -0.5222483277320862,
        -1.3455839157104492,
        0.0,
        1.0
      ],
      "name": "rocket_beez2_4"
    },
    {
      "mesh": 6,
      "name": "Object_14"
    },
    {
      "children": [
        16
      ],
      "matrix": [
        1.2518311575397561e-08,
        0.07499343660245375,
        -0.13391204530958553,
        0.0,
        -6.046007117438079e-09,
        0.24785387180489213,
        0.13880314932761542,
        0.0,
        0.07809109985828372,
        -1.6620312909840518e-09,
        6.369309639246191e-09,
        0.0,
        0.0,
        -1.3455837965011597,
        0.5222483277320862,
        1.0
      ],
      "name": "rocket_beez1_5"
    },
    {
      "mesh": 7,
      "name": "Object_16"
    },
    {
      "children": [
        18
      ],
      "matrix": [
        -0.8724985491052488,
        0.48861670234369653,
        8.664634999137586e-08,
        0.0,
        0.48861670234369653,
        0.8724985491052527,
        -2.2609819282975686e-08,
        0.0,
        -8.664634999137586e-08,
        2.2609819282975686e-08,
        -0.9999999999999962,
        0.0,
        0.5222483277320862,
        -1.3455836772918701,
        0.0,
        1.0
      ],
      "name": "rocket_beez3_6"
    },
    {
      "mesh": 8,
      "name": "Object_18"
    },
    {
      "children": [
        20
      ],
      "matrix": [
        -8.166436617243452e-10,
        0.07499343126087876,
        0.1339120483009753,
        0.0,
        -5.792444126636856e-09,
        0.24785387734156655,
        -0.13880313944105116,
        0.0,
        -0.07809109985828398,
        -1.5923274943426215e-09,
        4.155078021551104e-10,
        0.0,
        0.0,
        -1.3455835580825806,
        -0.5222483277320862,
        1.0
      ],
      "name": "rocket_beez4_7"
    },
    {
      "mesh": 9,
      "name": "Object_20"
    }
  ],
  "scene": 0,
  "scenes": [
    {
      "name": "Sketchfab_Scene",
      "nodes": [
        0
      ]
    }
  ]
}
